HIERARCHY
ROOT Hips
{
	OFFSET -0.179506 -22.333345 2.821913
	CHANNELS 6 Xposition Yposition Zposition Zrotation Yrotation Xrotation 
	JOINT LeftUpLeg
	{
		OFFSET 6.951974 -9.140623 -0.681533
		CHANNELS 3 Zrotation Yrotation Xrotation
		JOINT LeftLeg
		{
			OFFSET 3.427654 -37.519855 -0.449580
			CHANNELS 3 Zrotation Yrotation Xrotation
			JOINT LeftFoot
			{
				OFFSET -1.359570 -39.796059 -4.369333
				CHANNELS 3 Zrotation Yrotation Xrotation
				JOINT LeftToe
				{
					OFFSET 2.635814 -5.579078 11.928840
					CHANNELS 3 Zrotation Yrotation Xrotation
					End Site
					{
						OFFSET 0.000000 0.000000 0.000000
					}
				}
			}
		}
	}
	JOINT RightUpLeg
	{
		OFFSET -6.767048 -9.052170 -0.431982
		CHANNELS 3 Zrotation Yrotation Xrotation
		JOINT RightLeg
		{
			OFFSET -3.829005 -38.256897 -0.885003
			CHANNELS 3 Zrotation Yrotation Xrotation
			JOINT RightFoot
			{
				OFFSET 1.577377 -39.841461 -4.231180
				CHANNELS 3 Zrotation Yrotation Xrotation
				JOINT RightToe
				{
					OFFSET -2.537174 -4.814398 12.334795
					CHANNELS 3 Zrotation Yrotation Xrotation
					End Site
					{
						OFFSET 0.000000 0.000000 0.000000
					}
				}
			}
		}
	}
	JOINT Spine
	{
		OFFSET -0.253288 10.896323 -2.669631
		CHANNELS 3 Zrotation Yrotation Xrotation
		JOINT Spine1
		{
			OFFSET 0.548704 13.518043 0.109247
			CHANNELS 3 Zrotation Yrotation Xrotation
			JOINT Spine2
			{
				OFFSET 0.145701 5.292222 2.542457
				CHANNELS 3 Zrotation Yrotation Xrotation
				JOINT Neck
				{
					OFFSET -0.277840 21.387037 -4.285703
					CHANNELS 3 Zrotation Yrotation Xrotation
					JOINT Head
					{
						OFFSET 0.515184 6.496960 5.134897
						CHANNELS 3 Zrotation Yrotation Xrotation
						End Site
						{
							OFFSET 0.000000 0.000000 0.000000
						}
					}
				}
				JOINT LeftShoulder
				{
					OFFSET 7.884473 12.174932 -3.408961
					CHANNELS 3 Zrotation Yrotation Xrotation
					JOINT LeftArm
					{
						OFFSET 9.097692 3.046888 -0.886815
						CHANNELS 3 Zrotation Yrotation Xrotation
						JOINT LeftForeArm
						{
							OFFSET 25.961220 -1.277207 -2.745643
							CHANNELS 3 Zrotation Yrotation Xrotation
							JOINT LeftHand
							{
								OFFSET 24.923361 0.898606 -0.117091
								CHANNELS 3 Zrotation Yrotation Xrotation
								End Site
								{
									OFFSET 0.000000 0.000000 0.000000
								}
							}
						}
					}
				}
				JOINT RightShoulder
				{
					OFFSET -8.175920 11.883285 -3.861528
					CHANNELS 3 Zrotation Yrotation Xrotation
					JOINT RightArm
					{
						OFFSET -9.601238 3.255117 -0.914307
						CHANNELS 3 Zrotation Yrotation Xrotation
						JOINT RightForeArm
						{
							OFFSET -25.374195 -1.332924 -2.140099
							CHANNELS 3 Zrotation Yrotation Xrotation
							JOINT RightHand
							{
								OFFSET -25.529810 0.777228 -0.555919
								CHANNELS 3 Zrotation Yrotation Xrotation
								End Site
								{
									OFFSET 0.000000 0.000000 0.000000
								}
							}
						}
					}
				}
			}
		}
	}
}
MOTION
Frames: 16
Frame Time: 0.033333
78.897774 16.498491 42.686710 -86.597568 -13.276317 134.217681 10.346335 4.361032 -24.556142 -17.348794 1.115174 84.981683 -4.383344 12.215706 -27.808404 nan nan nan -17.710485 -2.830461 -74.293781 -2.830754 -18.994206 138.015392 8.139614 5.886413 -19.965740 nan nan nan 6.705429 -13.312259 44.851582 3.766247 -0.553669 -12.695388 1.365691 -1.511221 -0.182550 3.098016 -8.085147 -9.288242 13.953367 -7.207516 -22.371138 9.752971 -39.096642 -18.460531 -2.649196 -16.029399 -7.560200 10.878598 -20.037390 -12.639354 6.138100 -20.054639 6.891262 -18.017973 39.289821 -12.670200 -0.943271 14.401663 -17.779781 -11.977429 37.157580 -7.493002 -27.704007 11.693837 3.912188 
79.148750 16.790140 42.637287 -86.423200 -13.798749 134.196340 10.381047 3.901685 -25.092033 -17.212697 1.376045 85.339527 -4.505534 11.966083 -27.668336 nan nan nan -18.080478 -3.123313 -74.541727 -3.175350 -18.972458 138.384822 8.525167 6.152150 -19.693862 nan nan nan 6.917347 -13.299028 44.090460 3.732746 -0.534891 -12.218286 1.291233 -1.731854 -0.473585 2.890561 -8.470855 -8.928233 13.710725 -7.145381 -22.778671 8.867241 -38.735290 -18.161072 -2.939478 -16.572843 -7.579872 11.984137 -20.996246 -13.714581 4.477185 -19.793113 6.223389 -16.973378 38.871260 -13.145936 -1.236025 15.468794 -17.231609 -11.735781 36.820927 -7.141975 -26.770515 11.351483 4.601606 
79.432892 17.249468 42.340294 -87.109927 -14.177513 134.505869 10.190645 4.105833 -25.488264 -17.133400 1.689336 85.409671 -3.888675 11.818753 -27.074859 nan nan nan -17.866739 -2.955731 -75.727669 -3.343281 -18.512957 139.062129 7.917641 5.484283 -19.572923 nan nan nan 5.518735 -12.220076 43.243573 3.951291 -0.447611 -11.341545 1.928371 -1.537043 -1.132928 2.627171 -8.657834 -8.037884 13.885945 -7.095377 -23.085684 8.405332 -38.724781 -17.208120 -3.617222 -16.604406 -8.272747 13.030140 -22.703501 -14.755918 3.321536 -18.925494 5.579151 -16.844009 38.934396 -11.755518 -0.632969 14.998788 -17.866058 -12.659397 37.060830 -7.544500 -25.088117 10.504732 3.918452 
79.582909 17.512913 42.278961 -87.081681 -14.681149 134.063716 9.954824 3.884887 -25.405413 -17.048739 1.494907 85.576132 -3.975104 11.749463 -26.814659 nan nan nan -18.050943 -3.070755 -75.425064 -3.560216 -18.267369 139.351857 8.036651 5.672599 -19.612595 nan nan nan 5.414176 -12.144066 43.178270 3.882969 -0.505485 -11.111342 1.979511 -1.450323 -1.237486 2.384860 -8.838251 -7.656987 13.928434 -7.165250 -23.428218 7.734664 -38.620413 -17.055589 -4.081675 -16.913085 -8.146197 14.004123 -23.926978 -15.894100 1.803620 -18.404324 5.004854 -16.180468 38.895147 -12.060666 -0.973242 15.234213 -17.646775 -12.163865 36.800168 -7.338162 -24.188031 10.221838 4.307428 
79.764832 17.783709 42.237488 -86.972968 -15.078822 133.628232 9.922720 3.685982 -25.404281 -16.947653 1.388436 85.841082 -3.949709 11.421960 -26.504911 nan nan nan -18.086411 -3.126207 -75.194372 -3.784287 -18.076899 139.646987 7.958402 5.685642 -19.808229 nan nan nan 5.338854 -12.065112 43.161473 3.803052 -0.425928 -10.965600 2.061921 -1.210848 -1.409365 2.235725 -9.349931 -7.300993 13.958708 -7.186094 -23.519165 7.218891 -38.845884 -16.580538 -4.647633 -16.968573 -8.090639 14.972677 -25.216637 -16.932901 0.662995 -18.289469 5.145324 -16.008124 39.189696 -11.384405 -1.025538 14.320413 -17.753462 -12.408834 36.887921 -7.822264 -23.579888 10.239142 4.406604 
79.932259 18.033789 42.219894 -86.828440 -15.505303 133.197520 9.820596 3.451768 -25.472540 -16.822602 1.220454 86.166897 -3.980728 11.135249 -26.072198 nan nan nan -18.093419 -3.278404 -74.943009 -3.983921 -17.873694 139.903966 7.765487 5.680331 -20.078280 nan nan nan 5.367396 -12.042798 43.129898 3.728055 -0.375324 -10.969486 2.074464 -1.042913 -1.501877 2.032502 -9.855071 -6.961331 13.819476 -7.199097 -23.559988 6.590046 -38.944218 -16.000098 -5.344476 -17.095982 -7.947378 15.874885 -26.480210 -17.385088 0.115388 -18.548789 5.390549 -15.731206 39.425983 -10.718536 -1.110905 13.725889 -18.006511 -12.443560 36.792937 -7.903438 -23.512210 10.761748 4.856849 
80.063698 18.287968 42.221546 -86.689909 -16.017330 132.717781 9.613780 3.065621 -25.449508 -16.639995 1.021742 86.444671 -4.007408 11.028012 -25.702529 nan nan nan -18.223562 -3.457553 -74.622884 -4.194976 -17.674881 140.119560 7.606226 5.736406 -20.126324 nan nan nan 5.480814 -12.179199 43.177793 3.528013 -0.390703 -11.106882 1.872464 -0.905523 -1.525782 1.820263 -10.357297 -6.524711 13.894713 -7.119014 -23.877897 5.992460 -38.733789 -15.644080 -6.211064 -17.437151 -7.338590 16.552227 -27.764576 -17.215291 0.516355 -18.881246 5.306093 -15.096925 39.403389 -10.563710 -0.968746 13.772216 -17.960472 -12.512558 36.651318 -7.848733 -23.907177 11.386238 5.810436 
80.177155 18.511793 42.239746 -86.455627 -16.570760 132.215565 9.408752 2.565642 -25.469924 -16.544918 0.834459 86.745673 -3.877145 10.965968 -25.200711 nan nan nan -18.412760 -3.727869 -74.247414 -4.329853 -17.556323 140.302132 7.464181 5.905982 -20.084065 nan nan nan 5.668106 -12.320143 43.254291 3.330818 -0.362166 -11.302379 1.685022 -0.736278 -1.611845 1.503897 -11.139439 -6.037097 14.144207 -7.069897 -24.131621 5.501986 -38.643402 -15.175770 -7.320467 -17.706366 -6.664483 17.208473 -29.132307 -16.737452 1.231159 -18.888764 5.185004 -14.863623 39.478632 -9.860559 -0.467364 13.152911 -18.239433 -13.023336 36.879531 -8.267905 -23.744451 11.606960 6.371009 
80.298203 18.721466 42.277985 -86.195939 -17.071477 131.628556 9.258180 2.152213 -25.472319 -16.552754 0.629287 87.114649 -3.833992 10.745851 -24.525018 nan nan nan -18.602505 -3.971045 -73.739353 -4.413043 -17.468468 140.471882 7.425881 6.132152 -20.221384 nan nan nan 5.902846 -12.328717 43.259461 3.227054 -0.248495 -11.198879 1.576583 -0.603516 -1.794610 1.186099 -11.869390 -5.804773 14.245377 -7.333242 -24.052913 5.019745 -38.837010 -14.648284 -8.664467 -17.796569 -5.876510 18.175384 -30.338698 -16.667769 2.023249 -19.134908 5.225464 -14.719445 39.733238 -9.227850 -0.246172 12.181517 -18.505150 -13.408312 36.979874 -8.563752 -22.904703 11.701095 6.866290 
80.428574 18.953871 42.314713 -85.956729 -17.498723 130.992729 9.194264 1.894262 -25.444545 -16.593584 0.386953 87.525974 -3.823098 10.488989 -23.898966 nan nan nan -18.703403 -4.128922 -73.253873 -4.517361 -17.384076 140.604738 7.524156 6.248473 -20.578945 nan nan nan 6.097675 -12.238581 43.237639 3.156850 -0.063642 -11.025857 1.492643 -0.583176 -1.886652 0.912546 -12.386739 -5.608611 14.131492 -7.602101 -24.026483 4.300657 -38.825361 -14.160867 -10.022189 -18.094103 -4.909232 19.098747 -31.520957 -16.621627 3.204094 -19.605121 4.683317 -14.146678 39.834850 -8.953232 -0.532304 11.751006 -18.590801 -13.267345 36.596028 -8.473563 -22.858161 11.799321 7.443517 
80.525558 19.143354 42.343010 -85.639440 -17.960742 130.323840 9.086544 1.619459 -25.442161 -16.622258 0.072759 88.012237 -3.762534 10.236836 -23.344601 nan nan nan -18.777522 -4.428546 -72.679981 -4.589302 -17.222236 140.672693 7.553294 6.199653 -21.431906 nan nan nan 6.362097 -12.138691 43.225841 3.058376 0.179261 -11.087204 1.432852 -0.602878 -1.867010 0.515404 -13.031549 -5.134839 13.988814 -7.573404 -24.341826 3.110228 -38.773620 -13.426831 -11.146686 -18.514478 -3.891896 19.777368 -32.979035 -16.367266 4.075785 -19.934261 3.801276 -13.350685 39.837180 -8.453370 -0.966966 11.217522 -18.652081 -12.914673 36.281807 -8.350850 -23.223684 11.673463 7.701908 
80.617615 19.309444 42.387535 -85.199243 -18.519976 129.623841 8.921716 1.258818 -25.572507 -16.712155 -0.263579 88.599295 -3.665637 10.013059 -22.650012 nan nan nan -18.899857 -4.873049 -72.035595 -4.600148 -17.028362 140.744024 7.348074 6.269027 -21.498146 nan nan nan 6.690134 -12.119553 43.166031 2.953927 0.345255 -11.045800 1.395461 -0.573211 -1.959090 0.103178 -13.854176 -4.769770 13.967783 -7.569778 -24.509831 1.829464 -38.823258 -12.612985 -12.274794 -18.673538 -2.945922 20.474608 -34.660887 -16.186315 4.177627 -20.056699 3.069834 -12.686918 39.920831 -7.745566 -1.318760 10.337195 -18.894084 -12.681054 36.228246 -8.210547 -23.033107 11.478372 7.971878 
80.722717 19.500938 42.453701 -84.889672 -19.038599 128.870052 8.819820 0.876428 -25.645057 -16.834819 -0.389770 89.142363 -3.614415 9.904678 -21.963395 nan nan nan -19.095610 -5.135772 -71.339412 -4.547112 -16.816638 140.836469 7.277357 6.395591 -21.515179 nan nan nan 6.843041 -12.111816 43.232604 2.845062 0.387839 -10.688974 1.351973 -0.467370 -2.180923 -0.118867 -14.503414 -4.812508 13.951814 -7.789607 -24.417754 0.913774 -38.627279 -12.112595 -13.586043 -18.528364 -1.993727 21.256419 -36.503782 -16.094293 4.421732 -19.978348 2.458384 -12.259147 40.055435 -7.317099 -1.521236 9.603931 -19.102759 -12.550719 36.107514 -8.345416 -22.927582 11.512753 8.641120 
80.840263 19.680490 42.500648 -84.679993 -19.508426 128.278556 8.795907 0.469920 -25.885103 -16.832944 -0.296249 89.683801 -3.534121 9.680352 -21.151878 nan nan nan -19.350928 -5.374400 -70.826959 -4.427427 -16.634456 140.955381 7.245472 6.821437 -21.071976 nan nan nan 6.883800 -11.922791 43.089866 2.781518 0.543571 -10.294911 1.366721 -0.393528 -2.360865 -0.279686 -15.310144 -4.771981 13.932855 -7.900654 -24.294311 -0.233733 -38.444823 -11.445268 -14.934976 -18.300071 -0.901709 22.523002 -38.493321 -16.641597 4.185876 -19.932004 2.260820 -11.813930 40.172683 -7.069076 -1.743238 8.860259 -19.168434 -12.280711 35.834764 -8.782864 -19.969681 10.940483 9.246859 
80.758369 19.726330 42.898987 -83.571626 -19.702136 126.505969 8.922518 0.054785 -25.230297 -16.596149 -0.991886 90.426515 -4.079928 9.336947 -20.500376 nan nan nan -19.550215 -5.571347 -68.279756 -4.457468 -16.550074 140.431282 7.636153 8.265539 -20.932178 nan nan nan 8.406504 -12.854268 44.789424 2.227926 0.927595 -11.928122 0.846205 -0.582322 -1.503089 -0.440820 -16.384013 -5.242036 13.862002 -7.820038 -23.836836 -1.527420 -38.113467 -11.319783 -16.313547 -18.334901 0.344431 23.579891 -40.236769 -16.998891 3.673742 -20.899221 1.899134 -11.806420 40.244743 -7.429150 -1.984291 7.933552 -18.785833 -11.778235 35.473800 -9.429092 -20.406618 12.087071 10.662011 
80.912674 19.848131 43.001404 -82.927601 -20.264882 125.775506 8.972984 -0.467616 -25.797300 -16.507710 -0.884182 91.406229 -4.042449 8.917914 -19.867168 nan nan nan -19.934995 -6.104579 -67.487167 -4.341562 -16.554925 140.460074 7.575890 8.794043 -21.045279 nan nan nan 9.028027 -12.915263 44.357091 2.135708 0.853104 -11.688839 0.608669 -0.681985 -1.481924 -0.618587 -17.055492 -5.084765 13.727689 -7.823320 -23.750560 -3.071147 -37.751287 -10.545686 -17.407705 -18.043285 1.193714 24.445665 -42.287246 -17.263965 2.980210 -20.869570 1.773501 -10.945514 40.349431 -6.661243 -2.604528 7.277756 -18.883006 -11.496484 35.105866 -9.864833 -20.955178 12.477128 11.079775 
